<svg width="7" height="11" viewBox="0 0 7 11" fill="none" xmlns="http://www.w3.org/2000/svg">
<path d="M1.37655 10.355L1.47262 10.5858C1.40904 10.6122 1.34077 10.6256 1.27196 10.625C1.13592 10.6241 1.0053 10.57 0.908669 10.4737M1.37655 10.355L0.90806 10.4731C0.908263 10.4733 0.908466 10.4735 0.908669 10.4737M1.37655 10.355L1.47263 10.5858C1.53549 10.5596 1.59253 10.5211 1.6403 10.4724M1.37655 10.355L1.6403 10.4724M0.908669 10.4737C0.860571 10.4262 0.822266 10.3696 0.796049 10.3071C0.769712 10.2444 0.756123 10.177 0.756123 10.1089C0.756123 10.0408 0.769711 9.97345 0.796049 9.9107C0.822341 9.84805 0.860788 9.79132 0.909072 9.74369C0.909154 9.74361 0.909235 9.74353 0.909316 9.74345L4.99865 5.6906L0.911246 1.63877C0.862112 1.59235 0.822517 1.53669 0.794835 1.47487C0.766485 1.41156 0.75124 1.34316 0.750073 1.27376C0.748905 1.20436 0.761841 1.13548 0.788054 1.07125C0.814264 1.00703 0.853182 0.948841 0.902372 0.900089C0.951558 0.851342 1.01001 0.813023 1.07419 0.787296C1.13836 0.76157 1.20702 0.748929 1.27611 0.750071C1.3452 0.751213 1.41341 0.766115 1.4767 0.793955C1.53853 0.82115 1.59449 0.860176 1.64136 0.908909L6.09577 5.32452C6.096 5.32475 6.09622 5.32497 6.09645 5.32519C6.14484 5.3727 6.18339 5.42933 6.20979 5.4919C6.23631 5.55478 6.25 5.62233 6.25 5.69062C6.25 5.75891 6.23631 5.82646 6.20979 5.88933C6.18339 5.9519 6.14484 6.00854 6.09646 6.05604C6.09623 6.05627 6.096 6.05649 6.09577 6.05672L1.6403 10.4724M0.908669 10.4737L1.6403 10.4724" fill="white" stroke="white" stroke-width="0.5"/>
</svg>
