<svg width="639" height="482" viewBox="0 0 639 482" fill="none" xmlns="http://www.w3.org/2000/svg">
<path d="M310.362 461.154L23.2596 291.33C14.1219 286.198 6.27814 277.772 15.1922 272.225L303.333 105.95C307.663 103.264 314.228 101.506 318.621 104.064L620.006 279.195C629.143 284.503 630.789 299.34 621.603 304.664L348.255 460.882C342.509 464.224 335.991 466.007 329.345 466.055C322.699 466.102 316.156 464.413 310.362 461.154Z" fill="#E9EAC0"/>
<path d="M574.78 330.996L538.038 306.534H509.906L452.763 334.449L501.487 372.996C524.731 357.711 549.54 345.433 574.78 330.996Z" fill="url(#paint0_linear)"/>
<path d="M444.313 378.671L421.069 371.637L386.387 372.884L332.072 399.951L377.01 428.186C400.334 412.853 422.459 395.938 444.313 378.671Z" fill="url(#paint1_linear)"/>
<path d="M370.844 273.375L347.6 266.341L312.918 267.588L258.603 294.655L327.487 338.862C350.683 323.53 370.364 313.345 370.844 273.375Z" fill="url(#paint2_linear)"/>
<path d="M271.99 317.614L248.747 310.579L214.065 311.826L159.75 338.894L204.768 367.144C227.995 351.812 250.137 334.881 271.99 317.614Z" fill="url(#paint3_linear)"/>
<path d="M71.7757 275.63L33.26 296.494L49.8101 307.862L91.4569 283.912" fill="url(#paint4_linear)"/>
<path d="M68.5807 256.396C68.5807 256.396 65.7531 280.778 78.629 285.494C91.5048 290.211 98.406 277.932 98.6137 256.396" fill="#68E1FD"/>
<path d="M83.5973 265.078C91.8907 265.078 98.6138 261.191 98.6138 256.396C98.6138 251.602 91.8907 247.715 83.5973 247.715C75.3039 247.715 68.5808 251.602 68.5808 256.396C68.5808 261.191 75.3039 265.078 83.5973 265.078Z" fill="#F2696A"/>
<path d="M87.4471 237.082C87.4471 237.082 81.5523 228.561 84.1243 222.693C84.1243 222.693 86.249 218.904 89.2522 218.313C89.2522 218.313 88.9487 226.386 91.952 225.363C94.9553 224.34 91.952 216.906 91.952 216.906C91.952 216.906 95.147 212.637 98.5657 212.765C101.984 212.893 98.5657 220.311 100.962 219.16C103.358 218.009 101.106 211.614 103.821 210.862C106.295 210.295 108.803 209.894 111.33 209.663C111.33 209.663 113.886 217.034 111.33 218.089C108.774 219.144 105.02 219.496 106.825 221.126C108.63 222.757 113.742 220.887 113.742 220.887C113.742 220.887 114.061 225.028 112.32 226.818C110.579 228.609 100.371 224.644 102.176 228.209C103.981 231.774 110.723 229.808 110.723 229.808C108.696 232.659 106.149 235.1 103.214 237.002C99.1567 239.401 87.4471 237.082 87.4471 237.082Z" fill="#8CCC00"/>
<path d="M88.821 258.395C88.821 258.395 84.5716 254.19 85.4023 250.577C85.8216 249.301 86.6903 248.221 87.8465 247.539C87.8465 247.539 88.5334 252.16 90.1309 251.248C91.7284 250.337 89.2363 246.452 89.2363 246.452C89.2363 246.452 90.5782 243.686 92.5432 243.398C94.5081 243.111 93.3419 247.683 94.588 246.724C95.834 245.765 93.8691 242.423 95.3228 241.704C96.6672 241.116 98.0495 240.619 99.4603 240.217C99.4603 240.217 101.697 244.118 100.355 245.013C99.013 245.908 96.9203 246.484 98.1184 247.22C99.3166 247.955 102.016 246.34 102.016 246.34C102.352 247.499 102.29 248.738 101.841 249.858C101.042 251.057 94.8276 249.858 96.2334 251.728C97.6392 253.599 101.281 251.824 101.281 251.824C100.435 253.662 99.248 255.322 97.783 256.716C95.7062 258.427 88.821 258.395 88.821 258.395Z" fill="#8CCC00"/>
<path d="M73.1655 249.298C73.1655 249.298 62.8138 249.697 59.2354 244.357C59.2354 244.357 57.1906 240.536 58.2928 237.674C58.2928 237.674 64.9384 242.263 65.6892 239.177C66.4401 236.092 58.5644 234.605 58.5644 234.605C58.5644 234.605 56.6474 229.648 58.5644 226.803C60.4814 223.957 64.9544 230.864 65.178 228.178C65.4017 225.492 58.8999 224.005 59.7306 221.319C60.5798 218.925 61.5885 216.591 62.7498 214.332C62.7498 214.332 70.322 216.139 69.8427 218.857C69.3635 221.575 67.6382 224.932 69.9865 224.292C72.3348 223.653 73.501 218.329 73.501 218.329C73.501 218.329 77.1593 220.28 77.7504 222.71C78.3414 225.14 69.4913 231.631 73.4691 232.015C77.4468 232.398 79.5715 225.747 79.5715 225.747C80.8851 228.989 81.5735 232.45 81.6003 235.948C81.3607 240.632 73.1655 249.298 73.1655 249.298Z" fill="#8CCC00"/>
<path d="M109.077 212.829L105.77 215.659C105.882 214.492 106.026 213.325 106.202 212.158C106.298 211.534 105.355 211.278 105.259 211.902C105.014 213.458 104.828 215.025 104.7 216.602C101.793 219.144 98.9172 221.814 96.2493 224.596C96.02 222.612 95.9612 220.611 96.0736 218.617C96.0736 217.993 95.1311 217.993 95.0991 218.617C94.9728 220.923 95.0691 223.236 95.3867 225.524C93.6824 227.373 92.0824 229.316 90.5942 231.343C88.911 229.018 87.7651 226.348 87.2394 223.525C87.1276 222.902 86.1851 223.173 86.2969 223.781C86.855 226.78 88.0898 229.613 89.9073 232.063L90.0031 232.159C85.488 238.184 82.8735 245.421 82.4949 252.943C82.4949 253.566 83.4534 253.566 83.4693 252.943C83.8227 245.662 86.3304 238.65 90.6741 232.798C94.6197 233.846 98.7094 234.246 102.783 233.981C103.406 233.981 103.406 232.958 102.783 233.006C98.9167 233.255 95.0352 232.893 91.2811 231.935C93.3523 229.133 95.6269 226.488 98.0865 224.021H98.1663C100.451 224.229 102.735 224.42 105.02 224.516C106.455 224.723 107.92 224.552 109.269 224.021C109.828 223.733 109.269 222.902 108.774 223.173C107.176 223.973 104.988 223.541 103.294 223.445C101.841 223.365 100.403 223.237 98.9491 223.109C102.432 219.656 106.17 216.442 109.78 213.389C110.227 213.117 109.557 212.429 109.077 212.829Z" fill="#06577A"/>
<path d="M78.7885 231.871C78.7999 231.754 78.7696 231.638 78.7031 231.541C78.6366 231.445 78.5382 231.375 78.4253 231.345C78.3123 231.314 78.1922 231.324 78.0862 231.374C77.9801 231.423 77.8951 231.509 77.846 231.615C76.7862 235.223 74.5826 238.388 71.5678 240.632C70.5028 237.552 69.4911 234.445 68.5326 231.311C70.8924 228.957 72.8321 226.215 74.2676 223.206C74.5392 222.646 73.6925 222.15 73.4209 222.71C72.0994 225.473 70.3408 228.005 68.2131 230.208C67.1907 226.611 66.2961 222.982 65.5293 219.304C65.4015 218.681 64.459 218.953 64.5868 219.56C65.6518 224.581 66.9351 229.537 68.4367 234.429C66.5936 234.069 64.8016 233.484 63.1011 232.686C62.542 232.415 62.0308 233.262 62.6059 233.534C64.563 234.465 66.6374 235.127 68.7722 235.5C69.8106 238.698 70.9608 241.895 72.1909 245.093C69.2667 245.001 66.385 244.367 63.6922 243.222C63.1171 242.983 62.6218 243.814 63.1969 244.07C66.163 245.342 69.3477 246.026 72.5743 246.084C74.1398 250.007 75.8651 253.865 77.7502 257.659C78.0377 258.219 78.8684 257.659 78.5968 257.164C76.0744 252.107 73.8344 246.913 71.8873 241.608C75.2049 239.22 77.6331 235.794 78.7885 231.871Z" fill="#06577A"/>
<path d="M96.489 244.533L93.8052 248.994C93.4779 248.553 93.1944 248.082 92.9585 247.587C92.6869 247.011 91.8403 247.587 92.1118 248.082C92.4167 248.714 92.7918 249.31 93.2301 249.857L90.3226 254.749C90.0003 254.438 89.7921 254.027 89.7316 253.582C89.7316 252.959 88.6772 252.959 88.7571 253.582C88.8436 254.366 89.2266 255.087 89.8274 255.597L86.265 261.784C86.2196 261.895 86.2156 262.018 86.2538 262.131C86.292 262.244 86.3699 262.34 86.473 262.4C86.5761 262.461 86.6975 262.482 86.8149 262.46C86.9322 262.437 87.0376 262.374 87.1117 262.28L91.9042 254.286C92.7089 254.251 93.5024 254.084 94.2525 253.79C94.8436 253.598 94.588 252.655 93.9969 252.847C93.5042 253.003 92.9948 253.099 92.4793 253.135L97.2718 244.965C97.2772 244.871 97.2561 244.778 97.2109 244.696C97.1657 244.615 97.0983 244.547 97.0164 244.502C96.9345 244.457 96.8415 244.436 96.7482 244.441C96.6549 244.447 96.565 244.479 96.489 244.533Z" fill="#06577A"/>
<path d="M341.514 259.929L341.402 248.61L331.433 248.194L329.325 265.205C329.325 265.205 339.373 266.149 341.514 259.929Z" fill="#FFBEB3"/>
<path d="M329.82 135.112C328.339 147.848 327.646 160.662 327.743 173.483C328.222 190.702 326.146 246.884 326.146 246.884C326.146 246.884 339.437 253.279 347.424 249.506C347.424 249.506 350.619 212.126 351.019 199.767C351.418 187.409 348.894 136.184 348.894 136.184" fill="#CFE217"/>
<path d="M341.514 259.929C341.514 259.929 335.267 264.726 330.938 263.591C330.938 263.591 332.648 258.794 331.433 257.195C330.219 255.597 329.357 256.86 328.654 258.554C328.075 259.936 327.363 261.259 326.529 262.503C326.378 262.674 326.207 262.824 326.018 262.951C321.88 268.291 311.545 266.324 312.535 272.72C312.743 274.111 315.826 275.581 317.008 275.917C319.109 276.417 321.297 276.417 323.398 275.917C328.909 274.414 330.139 270.897 335.028 272.032C339.916 273.167 341.418 270.593 342.185 268.835C342.951 267.076 341.514 259.929 341.514 259.929Z" fill="#050817"/>
<path d="M357.265 242.167C359.198 254.877 361.786 274.415 361.674 276.173C361.514 278.667 366.227 288.804 370.093 275.678C370.093 275.678 370.476 255.037 370.316 242.455C365.964 242.595 361.607 242.499 357.265 242.167Z" fill="#FFBEB3"/>
<path d="M358.479 278.172C358.479 278.172 357.792 274.239 360.444 273.999C363.096 273.759 366.131 274.319 366.498 276.461C366.731 277.997 366.87 279.545 366.914 281.098C366.914 281.098 370.109 271.505 370.891 271.505C371.674 271.505 372.681 274.702 372.617 275.934C372.246 280.161 371.622 284.363 370.748 288.516C370.077 290.403 365.955 297.101 360.252 297.949C354.549 298.796 351.53 295.231 352.456 292.641C353.383 290.051 358.431 285.175 358.479 278.172Z" fill="#050817"/>
<path d="M340.539 139.893C340.539 139.893 344.006 185.314 345.443 199.911C346.881 214.508 354.15 263.383 354.15 263.383C354.15 263.383 365.588 266.485 375.381 262.232C375.381 262.232 371.499 185.986 369.31 166.832C366.435 141.731 361.323 129.564 361.323 129.564" fill="#CFE217"/>
<path d="M357.84 91.3368C357.84 91.3368 379.294 88.6509 381.802 86.6364C384.31 84.6219 383.528 58.6096 383.831 56.5791C384.135 54.5487 391.004 52.9019 392.202 55.1082C393.4 57.3146 396.675 83.5667 395.014 90.4415C393.352 97.3163 359.661 111.769 359.661 111.769L357.84 91.3368Z" fill="#FFBEB3"/>
<path d="M328.686 89.9467C326.928 92.9205 322.296 110.363 322.296 110.363L315.698 95.9742C314.02 92.2257 312.143 88.5699 310.075 85.0225L302.615 87.9163C306.72 100.323 309.867 112.57 316.593 123.905C317.148 124.669 317.822 125.338 318.589 125.888C325.459 130.204 333.35 124.433 334.772 123.058L340.411 85.9178C339.293 84.1591 330.443 86.973 328.686 89.9467Z" fill="#FFBEB3"/>
<path d="M361.834 93.0641C353.865 90.1729 345.613 88.1312 337.216 86.9727H336.162C334.876 93.4853 332.146 99.6262 328.175 104.943C331.769 106.222 352.632 112.202 360.284 113.832C370.253 91.4653 367.233 100.051 361.834 93.0641Z" fill="#FFBEB3"/>
<path d="M310.89 86.285C310.89 86.285 311.848 76.0847 310.794 75.2534C309.739 74.422 308.637 75.6371 308.637 75.6371C308.475 74.8759 308.08 74.1841 307.508 73.6571C306.935 73.1301 306.213 72.794 305.442 72.6953C302.774 72.4875 298.11 76.4844 297.678 78.5629C297.247 80.6413 302.982 88.3954 302.982 88.3954L310.89 86.285Z" fill="#FFBEB3"/>
<path d="M384.47 57.5868C384.47 57.5868 382.266 53.0462 381.275 51.0318C380.285 49.0173 382.873 47.2906 382.873 47.2906C382.755 46.74 382.756 46.1708 382.874 45.6204C382.993 45.07 383.227 44.5511 383.56 44.0978C383.894 43.6445 384.32 43.2672 384.81 42.9908C385.3 42.7144 385.843 42.5451 386.403 42.4942C390.653 41.9187 393.289 42.2064 394.535 44.6526C395.781 47.0987 392.17 55.988 392.17 55.988" fill="#FFBEB3"/>
<path d="M342.935 84.8623C342.232 84.7504 332.807 84.0469 328.685 89.5468C326.121 93.0657 324.101 96.9519 322.695 101.074L330.411 106.702L328.206 142.93C328.206 142.93 338.846 148.83 347.201 148.031C355.555 147.231 365.22 142.403 365.22 142.403V108.46L380.029 101.09L376.914 87.2605C376.914 87.2605 361.418 89.5148 358.671 89.1791C355.923 88.8433 355.971 86.9248 342.935 84.8623Z" fill="#FFC866"/>
<path d="M354.805 76.0693L342.792 78.9312V91.002C344.514 92.0719 346.493 92.6574 348.52 92.6968C350.547 92.7362 352.547 92.228 354.309 91.2259C354.459 86.1737 354.624 81.1215 354.805 76.0693Z" fill="#EFA49A"/>
<path d="M371.611 59.1217C371.474 58.1302 371.141 57.176 370.631 56.315C370.122 55.4541 369.445 54.7037 368.641 54.108C367.838 53.5122 366.924 53.0832 365.952 52.846C364.981 52.6087 363.971 52.5681 362.984 52.7266C361.443 52.866 359.952 53.3472 358.62 54.1354C357.288 54.9236 356.149 55.9989 355.284 57.2831C348.543 54.4852 340.715 57.379 337.584 61.5199C336.457 62.8013 335.836 64.4496 335.836 66.1564C335.836 67.8632 336.457 69.5115 337.584 70.7929L349.853 84.7663C352.041 84.2833 354.18 83.5983 356.243 82.7199C359.741 81.1211 362.633 74.3902 362.633 68.3307C363.934 68.5856 365.28 68.4862 366.53 68.043C368.278 67.3741 369.74 66.1192 370.666 64.4924C371.592 62.8655 371.926 60.9674 371.611 59.1217Z" fill="#050817"/>
<path d="M337.536 70.793C337.536 70.793 337.839 88.5076 342.664 89.6587C344.461 90.0114 346.324 89.7815 347.981 89.0023C349.639 88.2231 351.005 86.9353 351.881 85.326C352.387 84.3331 352.671 83.242 352.712 82.1284C352.712 82.1284 357.201 80.1619 356.402 77.5559C355.604 74.9498 352.84 78.4032 352.105 78.0355C351.214 77.7396 350.449 77.1501 349.935 76.3632C349.422 75.5763 349.19 74.6385 349.278 73.7028C349.182 70.3293 341.865 73.8307 337.536 70.793Z" fill="#FFBEB3"/>
<path d="M230.759 141.619C230.759 141.619 217.5 116.343 232.037 116.582L263.3 96.8693L263.54 74.0066L270.345 69.9297C270.345 69.9297 277.965 93.2081 276.495 101.57C275.026 109.931 254.003 125.632 248.795 129.181C241.766 133.961 230.759 141.619 230.759 141.619Z" fill="#FFBEB3"/>
<path d="M236.27 113.385L250.951 103.744L258.811 122.93L250.951 134.361" fill="#CFE217"/>
<path d="M238.027 308.149C237.778 308.9 237.703 309.698 237.808 310.482C237.913 311.266 238.196 312.016 238.635 312.674C240.152 314.401 256.958 323.466 264.865 321.275C272.773 319.085 271.894 316.479 271.815 315.168" fill="#2648A9"/>
<path d="M214.433 317.438C213.833 319.184 213.75 321.066 214.193 322.858C214.96 325.656 222.037 337.631 228.251 338.59C234.465 339.55 240.312 337.951 239.961 332.867" fill="#2648A9"/>
<path d="M232.628 246.772C232.628 246.772 229.721 262.328 229.05 267.556C228.379 272.784 225.855 314.145 225.855 314.145C225.855 314.145 220.343 321.739 217.771 319.884C215.199 318.03 213.123 284.711 214.353 271.377C215.583 258.043 217.995 239.065 217.995 239.065" fill="#FFBEB3"/>
<path d="M253.539 231.631C253.859 232.35 248.651 303.8 248.651 303.8C248.651 303.8 244.673 308.277 239.992 305.751C239.992 305.751 234.002 257.435 240.216 237.946" fill="#FFBEB3"/>
<path d="M219.193 173.371C219.193 173.371 213.522 199.24 212.627 208.545C211.733 217.85 213.027 250.737 213.027 250.737C213.027 250.737 231.478 260.458 238.059 245.381C238.059 245.381 241.766 249.634 257.134 240.585C257.134 240.585 257.549 189.695 252.261 178.647C246.973 167.6 220.79 169.214 219.193 173.371Z" fill="#050817"/>
<path d="M212.58 118.341C207.322 121.447 203.49 126.492 201.908 132.394C199.208 142.355 193.729 161.844 193.042 164.882C192.355 167.919 190.167 193.26 190.167 193.26C190.167 193.26 187.467 201.254 187.467 203.396C187.565 205.222 187.848 207.033 188.313 208.8C188.313 208.8 191.508 211.678 193.106 211.678C194.703 211.678 199.176 211.007 199.352 209.984C199.528 208.96 195.981 207.617 196.477 204.915C196.972 202.213 198.969 202.213 200.087 203.317C201.205 204.42 202.547 201.958 202.547 201.958C202.547 201.958 198.49 197.065 196.477 195.035C196.477 195.035 203.905 168.767 205.247 164.93C206.589 161.092 211.813 149.038 213.426 147.966C215.04 146.895 220.775 148.926 224.992 136.423C229.209 123.921 212.58 118.341 212.58 118.341Z" fill="#FFBEB3"/>
<path d="M252.804 127.038C252.325 121.442 250.216 114.695 244.146 112.921C242.305 112.443 240.388 112.339 238.507 112.617L231.158 113.72L221.669 115.143C221.669 115.143 214.225 116.246 212.595 118.341C212.595 118.341 221.653 122.817 221.27 132.538C221.014 139.349 218.186 148.526 213.378 148.03C213.378 148.03 215.071 179.206 217.02 183.699C217.02 183.699 238.507 188.623 253.555 178.359C253.555 178.375 253.763 138.102 252.804 127.038Z" fill="#CFE217"/>
<path d="M224.513 103.744C224.774 105.959 224.774 108.196 224.513 110.411C224.046 112.251 223.059 113.916 221.669 115.207C221.669 115.207 231.654 127.694 239.513 126.399C247.373 125.104 236.318 113.513 236.318 113.513C236.318 113.513 237.181 113.785 237.053 110.171" fill="#FFBEB3"/>
<path d="M216.925 309.077C216.925 309.077 217.803 318.046 219.433 316.288C221.062 314.529 218.857 309.141 221.749 309.253C224.64 309.365 226.35 308.693 226.669 310.036C226.989 311.379 230.232 321.228 235.136 325.321C240.04 329.414 242.117 333.794 237.181 334.082C235.905 334.236 234.712 334.796 233.778 335.681C232.404 337.072 226.525 336.257 224.081 333.635C221.637 331.013 214.496 319.757 214.496 317.455C214.496 315.153 214.72 309.605 216.925 309.077Z" fill="#050817"/>
<path d="M247.197 304.712C247.197 304.712 245.712 301.051 247.357 300.347C249.002 299.644 250.648 298.749 251.463 299.74C252.277 300.731 252.773 302.746 253.412 303.337C254.051 303.929 268.14 310.916 270.249 312.93C272.358 314.944 271.927 316.223 271.288 315.824C270.649 315.424 269.802 314.849 269.387 315.824C268.971 316.799 269.035 320.188 266.383 320.013C263.731 319.837 258.587 320.3 255.728 317.918C252.868 315.536 245.664 313.713 242.948 312.434C240.232 311.155 238.028 309.972 238.028 308.15C238.028 306.327 238.235 300.459 239.417 300.268C240.6 300.076 240.184 303.577 242.053 304.504C243.717 305.042 245.496 305.114 247.197 304.712Z" fill="#050817"/>
<path d="M236.43 113.496L236.334 113.384L228.347 106.222L225.248 108.684C226.004 109.701 226.82 110.673 227.692 111.594C230.392 113.928 233.97 115.862 236.43 113.496Z" fill="#CC7158"/>
<path d="M243.587 84.9578C242.934 84.2489 242.072 83.7672 241.127 83.5828C240.922 83.2381 240.681 82.9165 240.408 82.6236C239.323 81.4367 237.825 80.7103 236.222 80.5931C235.625 80.5586 235.028 80.6683 234.481 80.9129C233.562 80.3597 232.53 80.0209 231.462 79.9216C230.377 79.8191 229.289 80.0898 228.379 80.689C226.871 80.1245 225.204 80.1704 223.73 80.8169C222.714 81.2823 221.874 82.0611 221.334 83.0393C220.475 83.1961 219.662 83.5449 218.957 84.0598C218.252 84.5747 217.672 85.2424 217.26 86.013C216.932 86.5718 216.72 87.1915 216.638 87.8345C216.555 88.4775 216.604 89.1305 216.781 89.7542C216.291 90.4219 215.99 91.2099 215.911 92.0347C215.833 92.8594 215.979 93.6901 216.333 94.4386C216.65 95.1095 217.108 95.704 217.675 96.1813C217.664 96.341 217.664 96.5013 217.675 96.661C218.017 98.8352 218.818 100.912 220.024 102.752C220.534 103.52 221.123 104.233 221.781 104.879C222.212 105.31 222.66 105.71 223.123 106.11C223.586 106.51 223.49 106.717 223.442 106.366C223.497 106.882 223.695 107.373 224.014 107.783C224.333 108.193 224.76 108.505 225.248 108.684C227.385 107.275 229.054 105.26 230.04 102.896C230.096 102.793 230.179 102.706 230.281 102.646C230.382 102.586 230.497 102.554 230.615 102.554C230.733 102.554 230.848 102.586 230.95 102.646C231.051 102.706 231.134 102.793 231.19 102.896L239.881 93.5913C240.921 93.3549 241.884 92.8563 242.678 92.1428C243.472 91.4293 244.071 90.5245 244.417 89.5144C244.685 88.7479 244.75 87.925 244.604 87.1261C244.459 86.3273 244.108 85.5801 243.587 84.9578Z" fill="#583228"/>
<path d="M242.229 91.0017C242.692 90.1064 245.68 111.69 238.714 113.225C231.749 114.76 227.804 106.43 227.804 106.43C227.804 106.43 221.19 102.673 224.609 100.323C228.027 97.9724 229.593 101.234 229.593 101.234C229.593 101.234 227.995 91.945 232.324 92.7284C236.654 93.5118 240.392 94.535 242.229 91.0017Z" fill="#FFBEB3"/>
<path d="M213.027 250.705L213.905 302.538C213.905 302.538 224.529 304.776 231.989 302.538L237.404 248.994L235.807 294.048C235.807 294.048 245.759 296.83 253.475 293.84L257.197 240.568" fill="#050817"/>
<path d="M214.64 116.981C214.64 116.981 206.301 121.298 202.723 128.972C199.991 134.84 196.093 146.559 196.093 146.559L209.72 154.345L215.854 148.829C215.854 148.829 223.411 139.237 223.618 133.737C223.826 128.237 221.446 117.333 214.64 116.981Z" fill="#CFE217"/>
<path d="M263.588 74.0069C263.588 74.0069 258.683 68.8748 258.795 67.34C258.859 66.8829 259.04 66.4501 259.32 66.0833C259.599 65.7164 259.969 65.4279 260.393 65.2456C260.393 65.2456 258.795 61.3445 262.342 59.9536C265.888 58.5626 271.383 58.3548 272.07 59.9536C272.757 61.5524 270.345 69.93 270.345 69.93C270.345 69.93 265.984 76.7729 263.588 74.0069Z" fill="#FFBEB3"/>
<path d="M442.923 99.5556C437.412 99.6516 430.702 95.5587 430.031 89.7231C430.483 89.7521 430.937 89.7521 431.389 89.7231C434.744 89.5792 440.143 87.133 440.255 83.1201C440.367 79.1071 435.143 78.7074 432.411 79.8106C431.127 80.3361 430 81.1823 429.135 82.2683C428.271 83.3543 427.7 84.6439 427.475 86.0139C426.791 85.6811 426.152 85.262 425.574 84.7668C423.401 82.8251 421.949 80.205 421.452 77.3324C421.212 76.1165 421.163 74.8702 421.309 73.6392C422.614 74.0845 424.015 74.1728 425.366 73.895C428.737 73.2076 433.034 68.9228 429.951 65.5014C427.379 62.6236 422.858 64.4302 420.813 66.9243C420.332 67.5182 419.914 68.1613 419.567 68.8429C418.36 67.5387 417.692 65.8245 417.698 64.0465C417.714 62.5409 418.084 61.0602 418.778 59.7243C419.472 58.3883 420.47 57.2345 421.692 56.3563C423.162 55.2052 421.101 53.1587 419.647 54.3098C417.646 55.7988 416.164 57.8798 415.41 60.2584C414.656 62.6371 414.669 65.1928 415.446 67.5638C416.048 69.2698 417.09 70.7864 418.465 71.9605C417.139 78.6434 420.973 86.7173 427.283 89.0356C427.376 90.6442 427.766 92.2218 428.434 93.6881C429.75 96.3881 431.821 98.6474 434.396 100.191C436.971 101.735 439.939 102.498 442.939 102.385C443.256 102.308 443.538 102.125 443.739 101.867C443.94 101.609 444.048 101.291 444.046 100.964C444.044 100.637 443.933 100.32 443.729 100.065C443.525 99.8093 443.241 99.6299 442.923 99.5556ZM430.271 86.5255L431.868 83.5677H431.996C432.396 83.1022 432.884 82.721 433.433 82.4465C433.981 82.172 434.579 82.0097 435.191 81.9689C435.518 81.882 435.866 81.9108 436.174 82.0507C436.483 82.1905 436.734 82.4327 436.884 82.7363C436.913 82.868 436.913 83.0043 436.884 83.136C437.284 84.463 434.776 85.838 434.089 86.1578C432.866 86.7238 431.516 86.9555 430.175 86.8293C430.223 86.7173 430.239 86.6214 430.255 86.5255H430.271ZM425.255 67.0042C425.522 66.894 425.815 66.864 426.099 66.918C426.382 66.9719 426.644 67.1075 426.852 67.308C428.45 68.619 426.756 70.5056 425.159 70.9533C424.163 71.2459 423.104 71.2459 422.107 70.9533C423.05 69.2426 424.52 66.7324 425.255 67.0042Z" fill="#464DAA"/>
<path d="M180.006 129.98C174.495 130.076 167.785 125.983 167.114 120.147C167.567 120.176 168.02 120.176 168.472 120.147C171.827 120.003 177.227 117.557 177.338 113.544C177.45 109.531 172.226 109.131 169.495 110.235C168.204 110.761 167.07 111.611 166.202 112.703C165.335 113.795 164.763 115.092 164.542 116.47C163.858 116.137 163.219 115.718 162.641 115.223C160.469 113.281 159.016 110.661 158.52 107.788C158.279 106.573 158.231 105.326 158.376 104.095C159.682 104.541 161.083 104.629 162.434 104.351C165.804 103.664 170.102 99.3788 167.019 95.9574C164.447 93.0796 159.926 94.8862 157.881 97.3804C157.399 97.9742 156.982 98.6173 156.635 99.2989C155.427 97.9948 154.759 96.2805 154.766 94.5025C154.782 92.997 155.152 91.5163 155.845 90.1803C156.539 88.8443 157.537 87.6906 158.759 86.8124C160.229 85.6612 158.168 83.6148 156.715 84.7659C154.714 86.2548 153.231 88.3359 152.477 90.7145C151.723 93.0931 151.736 95.6488 152.513 98.0199C153.116 99.7258 154.157 101.242 155.533 102.417C154.207 109.099 158.041 117.173 164.351 119.492C164.443 121.1 164.833 122.678 165.501 124.144C166.817 126.844 168.889 129.103 171.464 130.647C174.039 132.191 177.006 132.954 180.006 132.842C180.341 132.78 180.643 132.603 180.86 132.342C181.078 132.08 181.197 131.751 181.197 131.411C181.197 131.07 181.078 130.741 180.86 130.479C180.643 130.218 180.341 130.041 180.006 129.98ZM167.354 116.95L168.952 113.992H169.079C169.479 113.526 169.967 113.145 170.516 112.871C171.065 112.596 171.662 112.434 172.274 112.393C172.602 112.306 172.949 112.335 173.258 112.475C173.566 112.615 173.817 112.857 173.968 113.16C173.996 113.292 173.996 113.428 173.968 113.56C174.367 114.887 171.859 116.262 171.172 116.582C169.95 117.148 168.599 117.38 167.258 117.253C167.306 117.125 167.322 117.045 167.338 116.95H167.354ZM162.338 97.4283C162.605 97.3181 162.898 97.2881 163.182 97.3421C163.466 97.396 163.727 97.5315 163.935 97.7321C165.533 99.0431 163.84 100.93 162.242 101.377C161.246 101.67 160.187 101.67 159.191 101.377C160.133 99.6506 161.587 97.1086 162.338 97.4283Z" fill="#DD582A"/>
<path d="M462.604 133.098C461.342 131.884 459.675 131.181 457.926 131.125C456.176 131.069 454.468 131.663 453.131 132.794C450.814 134.841 454.217 138.23 456.517 136.184C457.46 135.352 459.089 136.184 459.712 137.015C460.974 138.614 460.783 141.172 460.511 143.059C460.357 143.662 460.436 144.302 460.732 144.85C461.028 145.398 461.52 145.815 462.109 146.016C462.712 146.187 463.359 146.115 463.91 145.817C464.462 145.518 464.876 145.016 465.064 144.418C465.735 140.469 465.767 135.928 462.604 133.098Z" fill="#DD582A"/>
<path d="M257.405 37.2017C251.894 35.0593 245.647 39.6958 245.552 45.4355C245.552 48.5212 250.344 48.5212 250.344 45.4355C250.397 44.7729 250.605 44.132 250.951 43.5643C251.296 42.9966 251.77 42.5178 252.334 42.1665C252.898 41.8152 253.536 41.601 254.197 41.5412C254.859 41.4814 255.525 41.5777 256.143 41.8222C259.018 42.9414 260.265 38.3049 257.405 37.2017Z" fill="#FFC866"/>
<path d="M312.391 35.8271C311.756 35.8271 311.146 36.0798 310.697 36.5296C310.247 36.9793 309.995 37.5893 309.995 38.2253C309.995 38.8614 310.247 39.4714 310.697 39.9211C311.146 40.3708 311.756 40.6235 312.391 40.6235C313.027 40.6235 313.636 40.3708 314.086 39.9211C314.535 39.4714 314.787 38.8614 314.787 38.2253C314.787 37.5893 314.535 36.9793 314.086 36.5296C313.636 36.0798 313.027 35.8271 312.391 35.8271Z" fill="#DD582A"/>
<path d="M298.525 145.92C297.889 145.92 297.28 146.173 296.831 146.622C296.381 147.072 296.129 147.682 296.129 148.318C296.129 148.954 296.381 149.564 296.831 150.014C297.28 150.464 297.889 150.716 298.525 150.716C299.16 150.716 299.77 150.464 300.219 150.014C300.669 149.564 300.921 148.954 300.921 148.318C300.921 147.682 300.669 147.072 300.219 146.622C299.77 146.173 299.16 145.92 298.525 145.92Z" fill="#CFE217"/>
<path d="M414.727 113.193L408.96 121.874C407.251 124.464 411.404 126.862 413.098 124.288L418.833 115.607C420.574 113.097 416.42 110.619 414.727 113.193Z" fill="#FFC866"/>
<path d="M201.589 74.7259L196.94 71.1606C196.39 70.8452 195.739 70.7589 195.126 70.9205C194.513 71.082 193.988 71.4784 193.665 72.024C193.362 72.5769 193.283 73.2251 193.443 73.8349C193.604 74.4448 193.992 74.9697 194.528 75.3015L199.176 78.8668C199.726 79.1823 200.378 79.2685 200.991 79.107C201.604 78.9454 202.128 78.549 202.451 78.0035C202.754 77.4505 202.834 76.8023 202.673 76.1925C202.513 75.5827 202.125 75.0578 201.589 74.7259Z" fill="#464DAA"/>
<path d="M352.552 23.7568C351.258 20.9589 347.121 23.3891 348.415 26.171C348.629 26.7895 348.71 27.4462 348.654 28.0983C348.598 28.7505 348.406 29.3836 348.09 29.9565C347.773 30.5294 347.34 31.0294 346.818 31.4238C346.296 31.8183 345.697 32.0986 345.06 32.2464C341.977 32.9658 339.037 30.4397 338.015 27.7058C336.993 24.9719 332.312 26.107 333.398 28.9848C335.427 34.4207 341.194 38.7215 347.137 36.627C348.372 36.1838 349.501 35.4888 350.453 34.586C351.406 33.6832 352.16 32.5923 352.669 31.3824C353.178 30.1725 353.431 28.87 353.411 27.5573C353.391 26.2447 353.098 24.9505 352.552 23.7568Z" fill="#CFE217"/>
<path d="M376.195 198.344C376.195 198.344 370.236 195.898 369.965 195.147C368.757 193.25 367.372 191.473 365.827 189.839C365.461 190.252 365.238 190.773 365.192 191.323C365.146 191.874 365.279 192.424 365.572 192.893C366.546 194.124 367.329 194.779 366.993 195.227C366.658 195.674 354.453 190.095 353.862 190.159C353.271 190.223 353.479 192.109 354.837 193.02L357.041 194.379C357.041 194.379 353.686 193.532 353.543 193.996C353.483 194.464 353.594 194.938 353.855 195.332C354.116 195.725 354.51 196.011 354.964 196.138C354.964 196.138 353.367 196.522 354.773 197.641C355.319 198.181 355.988 198.581 356.722 198.808C356.722 198.808 355.3 198.808 355.811 199.847C356.322 200.886 359.98 200.886 360.763 201.27C365.397 202.603 370.13 203.56 374.917 204.132C377.649 204.1 376.195 198.344 376.195 198.344Z" fill="#FFB5A9"/>
<path d="M389.79 152.251C388.148 149.948 386.366 147.748 384.454 145.664C383.416 144.928 375.828 143.729 375.093 142.722C374.358 141.715 380.876 141.379 381.595 141.603C382.314 141.827 374.278 134.056 374.917 132.442C375.556 130.827 382.234 137.989 382.234 137.989C382.234 137.989 375.844 130.187 376.85 129.116C377.857 128.045 383.049 135.895 383.799 135.767C384.55 135.639 380.732 129.932 381.93 128.924C383.128 127.917 387.346 135.943 387.346 135.943C387.346 135.943 387.346 131.067 388.288 130.891C389.231 130.715 389.534 138.117 389.678 138.965C389.822 139.812 395.413 148.557 395.413 148.557" fill="#FFB5A9"/>
<path d="M419.376 169.566C417.874 168.415 392.218 143.106 392.218 143.106C392.218 143.106 386.371 145.105 385.828 149.118C385.828 149.118 403.193 175.802 408.576 179.495" fill="#DD582A"/>
<path d="M430.542 377.696L436.661 374.307L435.063 365.562C435.063 365.562 425.941 366.425 425.143 369.67" fill="#003B94"/>
<path d="M428.242 377.568C426.868 376.721 425.414 375.97 424.009 375.202C420.462 373.268 415.366 371.253 413.178 367.624C412.732 366.89 412.521 366.038 412.573 365.181C412.624 364.324 412.935 363.503 413.465 362.828C416.66 358.942 423.689 365.322 427.283 361.021C428.002 360.174 428.322 346.632 428.322 346.632L441.98 350.309C441.98 350.309 444.297 377.488 444.025 379.087C443.754 380.686 439.073 382.365 439.073 382.365C437.674 382.07 436.338 381.528 435.127 380.766C433.689 379.727 434.999 367.016 433.178 368.791C431.357 370.566 430.558 377.536 430.558 377.536C429.79 377.643 429.012 377.654 428.242 377.568Z" fill="#CFE217"/>
<path d="M404.407 390.807L410.526 387.417L408.928 378.672C408.928 378.672 399.806 379.535 399.008 382.781" fill="#003B94"/>
<path d="M402.107 390.679C400.733 389.831 399.279 389.08 397.873 388.313C394.327 386.378 389.231 384.364 387.042 380.734C386.597 380 386.386 379.148 386.438 378.291C386.489 377.434 386.8 376.613 387.33 375.938C390.525 372.053 397.554 378.432 401.148 374.131C401.867 373.284 402.187 359.742 402.187 359.742L415.845 363.419C415.845 363.419 418.161 390.599 417.89 392.198C417.618 393.797 412.938 395.475 412.938 395.475C411.538 395.18 410.202 394.639 408.992 393.876C407.554 392.837 408.864 380.127 407.043 381.901C405.222 383.676 404.423 390.647 404.423 390.647C403.655 390.753 402.877 390.764 402.107 390.679Z" fill="#CFE217"/>
<path d="M448.897 302.682L452.843 356.513C452.843 356.513 446.453 365.354 424.951 360.446L424.743 324.137" fill="#06577A"/>
<path d="M423.992 313.346C424.456 317.982 423.992 369.111 423.992 369.111C423.992 369.111 418.05 380.303 392.17 369.111L392.538 325.672" fill="#06577A"/>
<path d="M446.693 316.494C439.989 320.393 432.874 323.535 425.478 325.863H425.318C425.142 325.778 424.95 325.73 424.754 325.721C424.558 325.712 424.363 325.743 424.179 325.812C423.996 325.881 423.828 325.986 423.686 326.121C423.544 326.256 423.431 326.419 423.354 326.599C418.783 327.96 414.13 329.028 409.423 329.796C403.385 330.772 398.369 326.295 392.186 325.975C392.186 302.201 392.074 234.492 402.187 220.183L432.076 210.175C432.22 212.637 446.597 229.36 446.246 249.649C446.017 267.684 446.903 285.715 448.898 303.64" fill="#06577A"/>
<path d="M399.375 192.797L402.139 220.072C402.139 220.072 424.504 220.984 434.089 214.333V191.198" fill="#DD582A"/>
<path d="M413.577 167.919C413.577 167.919 403.033 170.765 398.768 177.608C395.477 182.868 393.752 202.005 393.752 202.005L375.045 196.537C374.28 199.507 372.812 202.25 370.764 204.531C370.764 204.531 381.946 212.237 391.707 214.348C401.468 216.458 411.851 199.815 411.851 199.815C411.851 199.815 414.008 206.722 413.577 199.351" fill="#DD582A"/>
<path d="M406.867 194.156C409.94 191.641 412.252 188.319 413.545 184.563C414.807 180.246 413.225 176.457 411.739 172.444C410.143 168.493 409.204 164.308 408.96 160.053C408.832 155.849 409.311 151.66 409.599 147.471C409.64 147.292 409.64 147.106 409.599 146.927C411.005 142.131 413.896 138.198 419.583 137.702C434.312 136.455 435.143 152.779 435.031 159.414C434.919 166.049 434.216 170.605 439.089 173.323C443.961 176.041 447.507 183.38 442.843 189.311C438.178 195.243 442.363 193.053 445.479 198.281C448.594 203.509 447.779 210.032 441.405 212.398C435.031 214.764 405.381 210.319 402.65 207.601C401.683 206.495 401.185 205.056 401.26 203.589C401.922 199.867 403.915 196.514 406.867 194.156Z" fill="#FFC866"/>
<path d="M552.112 317.231C548.777 313.686 545.802 309.82 543.23 305.687C541.365 303.223 539.874 300.497 538.805 297.597L524.955 287.125L517.59 222.726L506.408 220.168V308.517L559.956 339.773L579.717 328.502L576.522 326.072C567.736 325.256 558.534 323.402 552.112 317.231Z" fill="#68E1FD"/>
<path d="M495.944 229.489L498.596 227.97L535.051 207.138L515.497 176.505L495.944 229.489Z" fill="#464DAA"/>
<path d="M557.863 315.168C542.495 303.833 532.095 290.003 528.405 271.105C526.264 260.154 524.539 249.122 523.006 238.074C521.584 228.459 520.958 218.743 521.136 209.024L510.273 211.311C509.379 213.261 510.433 217.578 510.561 219.624C510.992 226.163 511.615 232.687 512.382 239.178C514.347 255.725 516.983 272.576 522.494 288.356C529.891 309.556 550.371 326.567 572.017 332.483L583.087 326.695C576.058 324.457 563.566 319.341 557.863 315.168Z" fill="#464DAA"/>
<path d="M515.497 176.505H509.906L490.336 227.059L495.944 229.489" fill="#68E1FD"/>
<defs>
<linearGradient id="paint0_linear" x1="501.311" y1="345.289" x2="537.013" y2="309.361" gradientUnits="userSpaceOnUse">
<stop stop-color="#FFC49E" stop-opacity="0"/>
<stop offset="1" stop-color="#C1272D"/>
</linearGradient>
<linearGradient id="paint1_linear" x1="26386.5" y1="14572.3" x2="28415.9" y2="11665.6" gradientUnits="userSpaceOnUse">
<stop stop-color="#FFC49E" stop-opacity="0"/>
<stop offset="1" stop-color="#C1272D"/>
</linearGradient>
<linearGradient id="paint2_linear" x1="21705.5" y1="14199.1" x2="24460.5" y2="11121" gradientUnits="userSpaceOnUse">
<stop stop-color="#FFC49E" stop-opacity="0"/>
<stop offset="1" stop-color="#C1272D"/>
</linearGradient>
<linearGradient id="paint3_linear" x1="14106.7" y1="12355.6" x2="16136.9" y2="9448.63" gradientUnits="userSpaceOnUse">
<stop stop-color="#FFC49E" stop-opacity="0"/>
<stop offset="1" stop-color="#C1272D"/>
</linearGradient>
<linearGradient id="paint4_linear" x1="1786.15" y1="6286.85" x2="2338.48" y2="5646.69" gradientUnits="userSpaceOnUse">
<stop stop-color="#FFC49E" stop-opacity="0"/>
<stop offset="1" stop-color="#C1272D"/>
</linearGradient>
</defs>
</svg>
