<svg width="147" height="62" viewBox="0 0 147 62" fill="none" xmlns="http://www.w3.org/2000/svg">
<path d="M84.3361 14.2771C83.6775 14.8808 81.1417 21.5879 79.539 26.9997C77.0472 35.3863 75.5214 43.8168 76.1361 45.6939C76.5642 46.9783 77.7937 47.8455 79.2207 47.8455C80.6258 47.8455 80.7465 47.6589 80.9112 45.0902C80.9771 44.0583 81.032 43.1472 81.032 43.0704C81.032 43.0045 81.3832 43.4765 81.8223 44.1352C82.8542 45.7159 84.1166 46.9783 85.1484 47.4832C85.8729 47.8345 85.9827 47.8564 87.0694 47.8564C88.1672 47.8564 88.266 47.8345 88.9795 47.4832C90.4943 46.7368 92.4812 44.3986 93.9961 41.5994C95.7854 38.2843 96.0269 37.2195 95.0938 36.8243C94.7315 36.6816 94.3034 36.7365 93.9083 36.989C93.7765 37.0768 93.4033 37.6915 93.074 38.3502C91.9324 40.6224 90.2638 42.8398 89.1661 43.5424C87.9257 44.3218 86.4876 43.5534 84.5227 41.0286L84.0068 40.37L84.6325 40.1175C85.5985 39.7333 87.1243 38.8332 87.9915 38.1416C90.6041 36.0669 91.9433 33.114 91.0652 31.3577C90.5382 30.3038 89.3637 29.5793 88.1781 29.5793C86.8499 29.5903 85.7522 30.205 84.1385 31.8516C83.5787 32.4224 83.1176 32.8615 83.1176 32.8176C83.1176 32.5322 84.369 28.0645 85.1155 25.6824C85.7192 23.7285 86.8499 20.6109 87.5963 18.8216C88.1013 17.6141 88.2111 17.2299 88.2001 16.7579C88.1672 15.4407 86.817 14.1563 85.3131 14.0246C84.7423 13.9697 84.6544 13.9917 84.3361 14.2771ZM87.8488 32.7627C88.716 33.2348 86.817 35.4083 83.7763 37.4281C83.1725 37.8342 82.6456 38.1526 82.6237 38.1196C82.5578 38.0538 83.7214 36.3303 84.5337 35.2985C85.346 34.2556 86.4657 33.1799 87.0475 32.8835C87.5305 32.62 87.5634 32.62 87.8488 32.7627Z" fill="#4A4A4A"/>
<path d="M100.571 20.5453C99.6713 21.0173 99.3529 21.9723 99.2871 24.4752L99.2322 26.3413L99.5944 26.8901C99.9896 27.461 100.846 28.0647 101.559 28.2623C101.768 28.3172 102.229 28.3721 102.58 28.3721C103.162 28.3721 103.239 28.3391 103.634 27.944C104.106 27.4719 104.512 26.4291 104.798 24.9362C105.127 23.1798 104.951 22.4005 104.029 21.5881C102.899 20.5892 101.373 20.1282 100.571 20.5453Z" fill="#4A4A4A"/>
<path d="M139.76 20.5453C138.86 21.0173 138.542 21.9723 138.476 24.4752L138.421 26.3413L138.783 26.8901C139.178 27.461 140.035 28.0647 140.748 28.2623C140.957 28.3172 141.418 28.3721 141.769 28.3721C142.351 28.3721 142.428 28.3391 142.823 27.944C143.295 27.4719 143.701 26.4291 143.986 24.9362C144.316 23.1798 144.14 22.4005 143.218 21.5881C142.087 20.5892 140.561 20.1282 139.76 20.5453Z" fill="#4A4A4A"/>
<path d="M128.498 27.4607C127.96 27.5595 127.872 27.8449 127.718 29.6671C127.356 34.1788 125.709 38.7892 123.174 42.3458C122.405 43.4326 121.099 44.7279 120.77 44.7279C120.298 44.7279 120.539 43.1362 121.648 38.866C122.339 36.1766 122.724 34.2446 122.811 33.0152C122.877 32.1699 122.855 31.9833 122.658 31.5991C122.142 30.5782 120.429 29.5464 119.222 29.5354C118.662 29.5244 118.541 29.5683 118.289 29.8208C118.025 30.0842 117.981 30.2269 117.905 31.1929C117.619 34.5739 117.553 35.2545 117.301 36.5938C117.059 37.911 116.961 38.1964 116.357 39.371C114.842 42.3568 112.723 44.9474 112.032 44.684C111.944 44.651 111.878 44.5083 111.878 44.3656C111.878 43.8058 112.24 42.0385 112.91 39.349C113.909 35.3753 114.095 34.3983 114.15 33.0371C114.205 31.8516 114.194 31.8187 113.876 31.3247C113.678 31.0283 113.283 30.6441 112.866 30.3697C112.229 29.9415 111.011 29.4695 110.55 29.4695C110.177 29.4695 109.595 29.7659 109.452 30.0403C109.375 30.183 109.276 31.0173 109.222 32.0162C109.123 34.069 108.969 35.1557 108.278 38.6355C107.827 40.9737 107.762 41.4347 107.762 42.752V44.2339L108.201 45.1011C108.662 46.0452 109.562 47.066 110.231 47.4283C110.506 47.571 110.846 47.6369 111.384 47.6369C112.032 47.6369 112.273 47.582 112.877 47.2856C113.722 46.8684 114.787 45.9244 115.709 44.7828L116.368 43.9705L116.543 44.5083C116.95 45.7268 118.179 47.1539 119.156 47.5271C120.55 48.054 122.603 47.077 125.128 44.684C129.134 40.8968 132.186 34.9691 132.186 30.9844C132.186 30.1611 132.153 30.0074 131.879 29.5683C131.472 28.9426 130.386 27.9547 129.826 27.7022C129.31 27.4826 128.827 27.3948 128.498 27.4607Z" fill="#4A4A4A"/>
<path d="M99.1443 29.7109C98.6942 29.9524 98.4198 30.4903 97.838 32.2466C95.4889 39.3599 94.5009 44.3655 95.1925 45.7047C95.4889 46.3085 96.3232 47 97.2672 47.4501C98.2771 47.9331 99.5285 48.0539 100.44 47.7575C101.79 47.3074 103.502 45.6938 104.984 43.4764C106.093 41.8078 107.718 38.5366 107.794 37.8121C107.838 37.3401 107.816 37.2742 107.476 36.9998C107.18 36.7473 107.037 36.7034 106.686 36.7473C106.269 36.8022 105.621 37.2742 105.621 37.5267C105.621 37.7023 104.128 40.293 103.557 41.1053C102.317 42.8836 101.186 43.8935 100.516 43.8276C100.198 43.7947 100.187 43.7727 100.154 43.2019C100.088 42.1042 100.824 39.0525 102.152 34.8263C102.811 32.7516 102.888 32.1259 102.591 31.4892C102.02 30.2927 100.012 29.2608 99.1443 29.7109Z" fill="#4A4A4A"/>
<path d="M138.333 29.7109C137.883 29.9524 137.609 30.4903 137.027 32.2466C134.678 39.3599 133.69 44.3655 134.381 45.7047C134.678 46.3085 135.512 47 136.456 47.4501C137.466 47.9331 138.717 48.0539 139.628 47.7575C140.979 47.3074 142.691 45.6938 144.173 43.4764C145.282 41.8078 146.906 38.5366 146.983 37.8121C147.027 37.3401 147.005 37.2742 146.665 36.9998C146.368 36.7473 146.226 36.7034 145.875 36.7473C145.457 36.8022 144.81 37.2742 144.81 37.5267C144.81 37.7023 143.317 40.293 142.746 41.1053C141.506 42.8836 140.375 43.8935 139.705 43.8276C139.387 43.7947 139.376 43.7727 139.343 43.2019C139.277 42.1042 140.013 39.0525 141.341 34.8263C142 32.7516 142.076 32.1259 141.78 31.4892C141.209 30.2927 139.2 29.2608 138.333 29.7109Z" fill="#4A4A4A"/>
<path fill-rule="evenodd" clip-rule="evenodd" d="M61 31.0034C60.9922 10.3523 50.8326 0.026133 30.4967 2.34192e-06C10.1831 -0.00567823 0.0201409 10.3227 2.0676e-05 30.9966C-0.0167462 51.6716 10.1641 61.9773 30.5034 62C50.8181 61.9955 60.9743 51.6727 61 31.0034Z" fill="#BFD732"/>
<g filter="url(#filter0_d)">
<path fill-rule="evenodd" clip-rule="evenodd" d="M44.1943 31.0177C44.1908 21.7086 39.6208 17.0538 30.4735 17.042C21.3361 17.0394 16.7647 21.6953 16.7556 31.0147C16.7481 40.3345 21.3276 44.9801 30.4765 44.9904C39.6143 44.9883 44.1827 40.3351 44.1943 31.0177Z" fill="#E9EAC0"/>
</g>
<g filter="url(#filter1_d)">
<path d="M48.7972 31.0364C43.5346 35.7865 39.5363 31.0353 39.5363 31.0353C44.1192 26.3772 48.7972 31.0364 48.7972 31.0364Z" fill="#484848"/>
<path d="M24.0907 24.5685C24.0907 24.5685 24.5624 18.3312 17.5516 17.9211V17.9222C17.5516 17.9222 17.5997 24.5912 24.0907 24.5685Z" fill="#484848"/>
<path d="M12.203 31.0319C16.7703 26.3477 21.4617 31.0319 21.4617 31.0319C16.2047 35.7842 12.203 31.0319 12.203 31.0319Z" fill="#484848"/>
<path d="M30.4744 12.4609C35.0853 17.0997 30.4766 21.8691 30.4766 21.8691C25.8266 16.51 30.4744 12.4609 30.4744 12.4609Z" fill="#484848"/>
<path d="M24.0974 37.5429C24.0974 37.5429 17.5349 37.5861 17.5561 44.1903V44.1892C17.5561 44.1892 23.6928 44.6743 24.0974 37.5429Z" fill="#484848"/>
<path d="M36.8827 24.5469C36.857 17.9472 43.4229 17.9007 43.4229 17.9007C43.0182 25.032 36.8827 24.5469 36.8827 24.5469Z" fill="#484848"/>
<path d="M30.4811 49.6528C30.4811 49.6528 35.083 44.8765 30.4777 40.2412V40.2423C30.4777 40.2423 25.8333 44.2767 30.4811 49.6528Z" fill="#484848"/>
<path d="M43.424 44.2187C43.424 44.2187 43.8957 37.9815 36.8849 37.5713V37.5725C36.8849 37.5725 36.9296 44.238 43.424 44.2187Z" fill="#484848"/>
</g>
<defs>
<filter id="filter0_d" x="5.75562" y="6.04199" width="49.4387" height="49.9484" filterUnits="userSpaceOnUse" color-interpolation-filters="sRGB">
<feFlood flood-opacity="0" result="BackgroundImageFix"/>
<feColorMatrix in="SourceAlpha" type="matrix" values="0 0 0 0 0 0 0 0 0 0 0 0 0 0 0 0 0 0 127 0" result="hardAlpha"/>
<feOffset/>
<feGaussianBlur stdDeviation="5.5"/>
<feColorMatrix type="matrix" values="0 0 0 0 0 0 0 0 0 0 0 0 0 0 0 0 0 0 0.15 0"/>
<feBlend mode="normal" in2="BackgroundImageFix" result="effect1_dropShadow"/>
<feBlend mode="normal" in="SourceGraphic" in2="effect1_dropShadow" result="shape"/>
</filter>
<filter id="filter1_d" x="8.203" y="12.4609" width="44.5942" height="45.1918" filterUnits="userSpaceOnUse" color-interpolation-filters="sRGB">
<feFlood flood-opacity="0" result="BackgroundImageFix"/>
<feColorMatrix in="SourceAlpha" type="matrix" values="0 0 0 0 0 0 0 0 0 0 0 0 0 0 0 0 0 0 127 0" result="hardAlpha"/>
<feOffset dy="4"/>
<feGaussianBlur stdDeviation="2"/>
<feColorMatrix type="matrix" values="0 0 0 0 0 0 0 0 0 0 0 0 0 0 0 0 0 0 0.16 0"/>
<feBlend mode="normal" in2="BackgroundImageFix" result="effect1_dropShadow"/>
<feBlend mode="normal" in="SourceGraphic" in2="effect1_dropShadow" result="shape"/>
</filter>
</defs>
</svg>
