<svg width="20" height="22" viewBox="0 0 20 22" fill="none" xmlns="http://www.w3.org/2000/svg">
<path d="M4.59474 17.2307C4.91906 17.2307 5.13528 16.9387 5.13528 16.5882V6.65879L12.1623 14.1059C12.4055 14.3687 12.8109 14.3687 13.0542 14.1059C13.2974 13.843 13.3244 13.3466 13.0812 13.0837L6.24338 5.54903H15.3515C15.6758 5.54903 15.946 5.3154 15.946 4.96494C15.946 4.61449 15.6758 4.38086 15.3515 4.38086H4.64879C4.32447 4.38086 4.0542 4.6729 4.0542 5.02335V16.5882C4.0542 16.9387 4.27041 17.2307 4.59474 17.2307Z" fill="black"/>
<path d="M16.7838 0H12.5405C12.1892 0 11.8919 0.20443 11.8919 0.584085C11.8919 0.96374 12.1622 1.16817 12.5135 1.16817H16.7568C17.9189 1.16817 18.8919 2.21952 18.8919 3.4753V18.1358C18.8919 19.3916 17.9189 20.443 16.7568 20.443H9.72973H3.35135C2.18919 20.443 1.08108 19.2456 1.08108 17.9898V13.4047C1.08108 13.0251 0.891892 12.733 0.540541 12.733C0.189189 12.733 0 13.0251 0 13.4047V17.9898C0 20.0049 1.48649 21.6111 3.35135 21.6111H9.72973H16.7838C18.6486 21.6111 20 20.1509 20 18.1358V3.4753C20 1.46021 18.6486 0 16.7838 0Z" fill="black"/>
</svg>
